<svg width="30" height="24" viewBox="0 0 30 24" fill="none" xmlns="http://www.w3.org/2000/svg">
<path d="M1.9375 13.1877L25.6275 13.1877L16.5562 21.8279C16.0812 22.2804 16.0628 23.0321 16.5153 23.5071C16.9671 23.9815 17.7188 24.0005 18.1944 23.548L28.5541 13.6799C29.0024 13.231 29.25 12.6349 29.25 12.0002C29.25 11.3661 29.0024 10.7694 28.5333 10.3009L18.1938 0.452946C17.964 0.23385 17.6695 0.125196 17.375 0.125196C17.0615 0.125196 16.748 0.248695 16.5147 0.493914C16.0622 0.968914 16.0806 1.72001 16.5556 2.17245L25.6649 10.8127L1.9375 10.8127C1.282 10.8127 0.75 11.3447 0.75 12.0002C0.75 12.6557 1.282 13.1877 1.9375 13.1877Z" fill="#969696"/>
</svg>
