<svg width="30" height="24" viewBox="0 0 30 24" fill="none" xmlns="http://www.w3.org/2000/svg">
<path d="M28.0625 10.8123H4.37247L13.4438 2.17205C13.9188 1.71961 13.9372 0.967926 13.4847 0.492926C13.0329 0.01852 12.2812 -0.000480138 11.8056 0.451957L1.44587 10.3201C0.997594 10.769 0.75 11.3651 0.75 11.9998C0.75 12.6339 0.997594 13.2306 1.46666 13.6991L11.8062 23.5471C12.036 23.7661 12.3305 23.8748 12.625 23.8748C12.9385 23.8748 13.252 23.7513 13.4853 23.5061C13.9378 23.0311 13.9194 22.28 13.4444 21.8276L4.33506 13.1873H28.0625C28.718 13.1873 29.25 12.6553 29.25 11.9998C29.25 11.3443 28.718 10.8123 28.0625 10.8123Z" fill="#C4C4C4"/>
</svg>
